<svg width="32" height="32" viewBox="0 0 32 32" fill="none" xmlns="http://www.w3.org/2000/svg">
<path d="M14.605 14.8356C13.3743 14.8356 12.1713 14.4706 11.1481 13.7869C10.1248 13.1032 9.32733 12.1314 8.85639 10.9945C8.38544 9.85752 8.26222 8.60644 8.50231 7.39944C8.74239 6.19245 9.335 5.08376 10.2052 4.21356C11.0754 3.34337 12.1841 2.75076 13.3911 2.51067C14.5981 2.27059 15.8491 2.39381 16.9861 2.86475C18.1231 3.3357 19.0949 4.13322 19.7786 5.15646C20.4623 6.1797 20.8272 7.3827 20.8272 8.61334C20.8272 10.2636 20.1716 11.8462 19.0047 13.0131C17.8379 14.18 16.2552 14.8356 14.605 14.8356ZM14.605 4.24001C13.7259 4.24001 12.8667 4.50067 12.1358 4.98903C11.4049 5.47739 10.8352 6.17152 10.4988 6.98363C10.1624 7.79575 10.0744 8.68938 10.2459 9.55152C10.4174 10.4137 10.8407 11.2056 11.4623 11.8271C12.0838 12.4487 12.8758 12.872 13.7379 13.0435C14.6 13.215 15.4937 13.127 16.3058 12.7906C17.1179 12.4542 17.812 11.8845 18.3004 11.1537C18.7888 10.4228 19.0494 9.56348 19.0494 8.68445C19.0494 8.1008 18.9345 7.52286 18.7111 6.98363C18.4877 6.44441 18.1604 5.95446 17.7477 5.54175C17.335 5.12905 16.845 4.80167 16.3058 4.57832C15.7666 4.35496 15.1886 4.24001 14.605 4.24001ZM19.5561 15.9111C14.7458 14.828 9.71326 15.3494 5.22719 17.3956C4.61021 17.6903 4.08965 18.1542 3.72612 18.7333C3.3626 19.3124 3.17108 19.9829 3.17386 20.6667V25.9556C3.17386 26.0723 3.19685 26.1879 3.24152 26.2957C3.28619 26.4036 3.35167 26.5016 3.43421 26.5841C3.51675 26.6666 3.61474 26.7321 3.72258 26.7768C3.83043 26.8215 3.94602 26.8444 4.06275 26.8444C4.17948 26.8444 4.29506 26.8215 4.40291 26.7768C4.51075 26.7321 4.60875 26.6666 4.69129 26.5841C4.77383 26.5016 4.8393 26.4036 4.88397 26.2957C4.92864 26.1879 4.95164 26.0723 4.95164 25.9556V20.6667C4.9439 20.3206 5.03734 19.9799 5.22051 19.6862C5.40367 19.3925 5.66859 19.1586 5.98275 19.0133C8.68512 17.7652 11.6283 17.125 14.605 17.1378C16.2728 17.1358 17.9349 17.3328 19.5561 17.7245V15.9111ZM19.6805 24.3645H25.1383V25.6089H19.6805V24.3645Z" fill="#080808"/>
<path d="M29.4849 19.0842H24.8893V20.862H28.596V28.302H16.0004V20.862H21.6004V21.2353C21.6004 21.4711 21.6941 21.6972 21.8608 21.8639C22.0275 22.0306 22.2536 22.1242 22.4893 22.1242C22.7251 22.1242 22.9512 22.0306 23.1179 21.8639C23.2846 21.6972 23.3782 21.4711 23.3782 21.2353V17.7776C23.3782 17.5418 23.2846 17.3157 23.1179 17.149C22.9512 16.9823 22.7251 16.8887 22.4893 16.8887C22.2536 16.8887 22.0275 16.9823 21.8608 17.149C21.6941 17.3157 21.6004 17.5418 21.6004 17.7776V19.0842H15.1115C14.8758 19.0842 14.6497 19.1779 14.483 19.3446C14.3163 19.5113 14.2227 19.7374 14.2227 19.9731V29.1909C14.2227 29.4266 14.3163 29.6527 14.483 29.8194C14.6497 29.9861 14.8758 30.0798 15.1115 30.0798H29.4849C29.7206 30.0798 29.9467 29.9861 30.1134 29.8194C30.2801 29.6527 30.3738 29.4266 30.3738 29.1909V19.9731C30.3738 19.7374 30.2801 19.5113 30.1134 19.3446C29.9467 19.1779 29.7206 19.0842 29.4849 19.0842Z" fill="#080808"/>
</svg>
