<svg width="32" height="32" viewBox="0 0 32 32" fill="none" xmlns="http://www.w3.org/2000/svg">
<path d="M13.334 10.6668V8.00016C13.334 7.29292 13.6149 6.61464 14.115 6.11454C14.6151 5.61445 15.2934 5.3335 16.0007 5.3335H25.334C26.0412 5.3335 26.7195 5.61445 27.2196 6.11454C27.7197 6.61464 28.0007 7.29292 28.0007 8.00016V24.0002C28.0007 24.7074 27.7197 25.3857 27.2196 25.8858C26.7195 26.3859 26.0412 26.6668 25.334 26.6668H16.0007C15.2934 26.6668 14.6151 26.3859 14.115 25.8858C13.6149 25.3857 13.334 24.7074 13.334 24.0002V21.3335" stroke="#080808" stroke-width="1.5" stroke-linecap="round" stroke-linejoin="round"/>
<path d="M20 16H4M4 16L8 12M4 16L8 20" stroke="#080808" stroke-width="1.5" stroke-linecap="round" stroke-linejoin="round"/>
</svg>
