<svg width="32" height="32" viewBox="0 0 32 32" fill="none" xmlns="http://www.w3.org/2000/svg">
<path d="M28.4242 9.52111L27.7656 8.37978C27.2682 7.51578 27.0189 7.08378 26.5949 6.91178C26.1722 6.73845 25.6936 6.87578 24.7349 7.14645L23.1082 7.60511C22.4962 7.74645 21.8549 7.66645 21.2976 7.37845L20.8482 7.11978C20.3695 6.813 20.0014 6.36125 19.7976 5.83045L19.3522 4.49978C19.0589 3.61978 18.9122 3.17978 18.5642 2.92911C18.2162 2.67578 17.7522 2.67578 16.8269 2.67578H15.3402C14.4149 2.67578 13.9522 2.67578 13.6029 2.92911C13.2549 3.17978 13.1096 3.61978 12.8162 4.49978L12.3709 5.83045C12.1667 6.36144 11.7981 6.81322 11.3189 7.11978L10.8696 7.37978C10.3122 7.66645 9.66957 7.74645 9.0589 7.60645L7.43223 7.14645C6.47357 6.87578 5.9949 6.73978 5.57223 6.91178C5.14823 7.08378 4.8989 7.51578 4.40157 8.37845L3.74423 9.52111C3.27757 10.3318 3.04423 10.7358 3.08957 11.1664C3.1349 11.5984 3.4469 11.9451 4.0709 12.6398L5.44557 14.1771C5.78157 14.6024 6.02023 15.3438 6.02023 16.0104C6.02023 16.6771 5.78157 17.4184 5.4469 17.8438L4.0709 19.3798C3.4469 20.0744 3.1349 20.4224 3.08957 20.8531C3.04423 21.2838 3.27623 21.6891 3.7429 22.4984L4.40157 23.6411C4.8989 24.5038 5.14823 24.9358 5.57223 25.1078C5.99623 25.2798 6.47357 25.1451 7.43223 24.8731L9.0589 24.4144C9.67075 24.2744 10.3124 24.3547 10.8709 24.6411L11.3189 24.8998C11.7989 25.2064 12.1669 25.6598 12.3696 26.1904L12.8149 27.5198C13.1082 28.3998 13.2549 28.8398 13.6029 29.0931C13.9522 29.3438 14.4149 29.3438 15.3402 29.3438H16.8269C17.7522 29.3438 18.2162 29.3438 18.5642 29.0918C18.9122 28.8398 19.0589 28.3998 19.3509 27.5198L19.7976 26.1904C20.0002 25.6584 20.3682 25.2064 20.8482 24.8998L21.2962 24.6411C21.8562 24.3544 22.4962 24.2731 23.1096 24.4144L24.7362 24.8731C25.6936 25.1451 26.1722 25.2811 26.5949 25.1091C27.0189 24.9358 27.2682 24.5038 27.7656 23.6411L28.4229 22.4984C28.8896 21.6891 29.1229 21.2851 29.0776 20.8531C29.0322 20.4211 28.7202 20.0744 28.0962 19.3798L26.7216 17.8438C26.3856 17.4171 26.1469 16.6771 26.1469 16.0104C26.1469 15.3438 26.3856 14.6024 26.7202 14.1771L28.0962 12.6398C28.7202 11.9464 29.0322 11.5984 29.0776 11.1664C29.1229 10.7344 28.8909 10.3318 28.4242 9.52111Z" stroke="#080808" stroke-width="1.5" stroke-linecap="round" stroke-linejoin="round"/>
<path d="M11.334 21.3333C11.8069 20.5142 12.4872 19.834 13.3064 19.3613C14.1256 18.8885 15.0548 18.6397 16.0007 18.64C17.9953 18.64 19.7353 19.7227 20.6673 21.3333M18.6673 12.6667C18.6673 13.3739 18.3864 14.0522 17.8863 14.5523C17.3862 15.0524 16.7079 15.3333 16.0007 15.3333C15.2934 15.3333 14.6151 15.0524 14.115 14.5523C13.6149 14.0522 13.334 13.3739 13.334 12.6667C13.334 11.9594 13.6149 11.2811 14.115 10.781C14.6151 10.281 15.2934 10 16.0007 10C16.7079 10 17.3862 10.281 17.8863 10.781C18.3864 11.2811 18.6673 11.9594 18.6673 12.6667Z" stroke="#080808" stroke-width="1.5" stroke-linecap="round" stroke-linejoin="round"/>
</svg>
