<svg width="32" height="33" viewBox="0 0 32 33" fill="none" xmlns="http://www.w3.org/2000/svg">
<path d="M15.9987 5.83325C17.4132 5.83325 18.7697 6.39515 19.7699 7.39535C20.7701 8.39554 21.332 9.7521 21.332 11.1666C21.332 12.5811 20.7701 13.9376 19.7699 14.9378C18.7697 15.938 17.4132 16.4999 15.9987 16.4999C14.5842 16.4999 13.2277 15.938 12.2275 14.9378C11.2273 13.9376 10.6654 12.5811 10.6654 11.1666C10.6654 9.7521 11.2273 8.39554 12.2275 7.39535C13.2277 6.39515 14.5842 5.83325 15.9987 5.83325ZM15.9987 8.49992C15.2915 8.49992 14.6132 8.78087 14.1131 9.28097C13.613 9.78106 13.332 10.4593 13.332 11.1666C13.332 11.8738 13.613 12.5521 14.1131 13.0522C14.6132 13.5523 15.2915 13.8333 15.9987 13.8333C16.7059 13.8333 17.3842 13.5523 17.8843 13.0522C18.3844 12.5521 18.6654 11.8738 18.6654 11.1666C18.6654 10.4593 18.3844 9.78106 17.8843 9.28097C17.3842 8.78087 16.7059 8.49992 15.9987 8.49992ZM15.9987 17.8333C19.5587 17.8333 26.6654 19.6066 26.6654 23.1666V27.1666H5.33203V23.1666C5.33203 19.6066 12.4387 17.8333 15.9987 17.8333ZM15.9987 20.3666C12.0387 20.3666 7.86536 22.3133 7.86536 23.1666V24.6333H24.132V23.1666C24.132 22.3133 19.9587 20.3666 15.9987 20.3666Z" fill="#080808"/>
</svg>
